<?xml version="1.0"?>
<svg xmlns="http://www.w3.org/2000/svg" height="512px" viewBox="0 -80 480 480" width="512px" class=""><g><g fill="#bddbff"><path d="m328 280h-32v32h80v-32zm0 0" data-original="#000000" class="active-path" style="fill:#556077" data-old_color="#000000"/><path d="m424 248h48v32h-48zm0 0" data-original="#000000" class="active-path" style="fill:#556077" data-old_color="#000000"/><path d="m296 248h32v32h-32zm0 0" data-original="#000000" class="active-path" style="fill:#556077" data-old_color="#000000"/><path d="m296 216v32h80v-32zm0 0" data-original="#000000" class="active-path" style="fill:#556077" data-old_color="#000000"/><path d="m328 216h96v-32h-96zm0 0" data-original="#000000" class="active-path" style="fill:#556077" data-old_color="#000000"/><path d="m296 184h32v32h-32zm0 0" data-original="#000000" class="active-path" style="fill:#556077" data-old_color="#000000"/><path d="m232 152h48v32h-48zm0 0" data-original="#000000" class="active-path" style="fill:#556077" data-old_color="#000000"/><path d="m232 120v32h96v-32zm0 0" data-original="#000000" class="active-path" style="fill:#556077" data-old_color="#000000"/><path d="m232 88h48v32h-48zm0 0" data-original="#000000" class="active-path" style="fill:#556077" data-old_color="#000000"/><path d="m232 88h96v-32h-96zm0 0" data-original="#000000" class="active-path" style="fill:#556077" data-old_color="#000000"/><path d="m232 56h48v-32h-96v32zm0 0" data-original="#000000" class="active-path" style="fill:#556077" data-old_color="#000000"/></g><path d="m472 240h-88v-16h40c4.417969 0 8-3.582031 8-8v-32c0-4.417969-3.582031-8-8-8h-40v-24c0-4.417969-3.582031-8-8-8h-40v-16h40c4.417969 0 8-3.582031 8-8v-32c0-4.417969-3.582031-8-8-8h-40v-24c0-4.417969-3.582031-8-8-8h-40v-24c0-4.417969-3.582031-8-8-8h-88c0-8.835938-7.164062-16-16-16h-160c-8.835938 0-16 7.164062-16 16v288c0 8.835938 7.164062 16 16 16h456c4.417969 0 8-3.582031 8-8v-64c0-4.417969-3.582031-8-8-8zm-8 32h-32v-16h32zm-48 0h-80v-16h80zm-112 0v-16h16v16zm-64-96v-16h32v16zm-48-112h32v16h-32zm80 48h-32v-16h32zm48 80v16h-16v-16zm48 48h-64v-16h64zm48-32h-80v-16h80zm-48-32h-80v-16h80zm-48-32h-80v-16h80zm48-32h-80v-16h80zm-48-32h-80v-16h80zm-48-48v16h-80v-16zm-256-16h160v72c0 4.417969 3.582031 8 8 8h40v88c0 4.417969 3.582031 8 8 8h56v112h-272zm288 272h64v16h-64zm160 16h-80v-16h80zm0 0" fill="#3d9ae2" data-original="#3D9AE2" class="" style="fill:#2F3751" data-old_color="#2f3751"/></g> </svg>
